<?xml version="1.0" standalone="no"?>
<!DOCTYPE svg PUBLIC "-//W3C//DTD SVG 1.1//EN" "http://www.w3.org/Graphics/SVG/1.1/DTD/svg11.dtd" >
<svg xmlns="http://www.w3.org/2000/svg" xmlns:xlink="http://www.w3.org/1999/xlink" version="1.1">
<metadata></metadata>
<defs>
<font id="axon_boldregular" horiz-adv-x="1005" >
<font-face units-per-em="2048" ascent="1638" descent="-410" />
<missing-glyph horiz-adv-x="614" />
<glyph horiz-adv-x="0" />
<glyph horiz-adv-x="682" />
<glyph horiz-adv-x="0" />
<glyph unicode="&#x9;" horiz-adv-x="681" />
<glyph unicode=" "  horiz-adv-x="614" />
<glyph unicode="&#x09;" horiz-adv-x="614" />
<glyph unicode="&#xa0;" horiz-adv-x="614" />
<glyph unicode="!" horiz-adv-x="245" d="M61 461h123v123h-123v-123zM61 645v948h123v-948h-123zM61 645h123h-123z" />
<glyph unicode="&#x22;" horiz-adv-x="460" d="M61 1389v204h123v-204h-123zM276 1389v204h123v-204h-123z" />
<glyph unicode="#" horiz-adv-x="1091" d="M61 735v123h142l65 350h-121v123h146l49 262h125l-49 -262h366l50 262h124l-49 -262h121v-123h-143l-66 -350h123v-123h-145l-54 -274h-124l51 274h-367l-51 -274h-125l51 274h-119zM328 858h368l66 350h-367z" />
<glyph unicode="$" horiz-adv-x="989" d="M61 1280q0 123 109 209q111 85 260 100v115h123v-113q195 -18 301 -133l35 -37l-90 -86l-35 39q-71 77 -211 92v-379q153 -15 266 -102q109 -84 109 -209q0 -127 -109 -211q-106 -84 -266 -102v-119h-123v121q-77 9 -151 37q-91 40 -146 98l-33 37l88 86l35 -39 q75 -78 207 -96v383q-151 18 -260 102q-109 86 -109 207zM184 1280q0 -61 68 -117q63 -51 178 -67v370q-108 -12 -178 -69q-68 -56 -68 -117zM553 588q117 15 182 69q70 55 70 119t-70 119q-71 58 -182 70v-377z" />
<glyph unicode="%" horiz-adv-x="1253" d="M61 1337q0 105 76 181q73 73 180 73q111 0 183 -75q73 -73 73 -181q0 -105 -75 -180q-76 -76 -181 -76q-103 0 -182 76q-74 77 -74 182zM184 1335q0 -52 39 -94q42 -39 94 -39q56 0 95 39t39 94q0 59 -39 95q-35 38 -95 38q-56 0 -94 -38q-39 -39 -39 -95zM457 461 l211 1132h125l-211 -1132h-125zM680 717q0 106 76 182q74 74 180 74q109 0 182 -76q74 -74 74 -180t-76 -182q-74 -74 -180 -74q-103 0 -182 76q-74 77 -74 180zM803 717q0 -52 39 -94q42 -39 94 -39q55 0 94 39t39 94q0 58 -39 94q-36 39 -94 39q-55 0 -94 -39t-39 -94z " />
<glyph unicode="&#x26;" horiz-adv-x="1114" d="M61 774q0 81 50 146q46 62 129 108q-81 44 -129 107q-50 68 -50 143q0 140 134 227q131 86 309 86q113 0 211 -37q97 -36 159 -104l33 -39l-88 -84l-35 39q-42 48 -116 74q-69 28 -164 28q-142 0 -230 -59q-90 -59 -90 -131q0 -66 90 -129q92 -59 228 -59h55v-125l-53 2 h-2q-136 0 -228 -62q-90 -63 -90 -131t90 -131q92 -59 230 -59q136 0 225 59q92 62 92 129v6v6v306h232v-123h-109v-185v-14q-3 -136 -135 -221q-130 -86 -305 -86q-172 0 -311 88q-132 89 -132 225z" />
<glyph unicode="'" horiz-adv-x="245" d="M61 1389v204h123v-204h-123z" />
<glyph unicode="(" horiz-adv-x="419" d="M61 1036q0 134 37 285q40 162 88 246l15 26h143l-47 -77q-37 -62 -78 -220q-35 -143 -35 -260q0 -116 39 -272q44 -161 86 -223l51 -80h-145l-16 24q-58 94 -99 254q-39 165 -39 297z" />
<glyph unicode=")" horiz-adv-x="419" d="M61 461l52 80q50 74 88 223q37 137 37 272q0 128 -35 260q-36 151 -80 220l-45 77h143l15 -26q49 -81 90 -248q34 -139 34 -283q0 -150 -38 -299q-37 -157 -99 -252l-16 -24h-146z" />
<glyph unicode="*" horiz-adv-x="389" d="M61 1403v82h41l-26 31l59 55l21 -23v25h82v-25l18 23l61 -55l-28 -31h39v-82h-39l26 -29l-61 -55q0 3 -10 10l-6 8v-30h-82v30l-19 -18l-59 55l24 29h-41z" />
<glyph unicode="+" horiz-adv-x="763" d="M61 967v123h261v260h122v-260h261v-123h-261v-260h-122v260h-261z" />
<glyph unicode="," horiz-adv-x="245" d="M61 379v205h123v-205h-123z" />
<glyph unicode="-" horiz-adv-x="763" d="M61 967v123h644v-123h-644z" />
<glyph unicode="." horiz-adv-x="245" d="M61 461h123v123h-123v-123z" />
<glyph unicode="/" horiz-adv-x="458" d="M61 461l213 1132h125l-213 -1132h-125z" />
<glyph unicode="0" d="M61 1028q0 229 127 397q128 168 316 168t313 -168q127 -164 127 -399q0 -230 -127 -397q-127 -168 -315 -168q-184 0 -314 168q-127 171 -127 399zM184 1026q0 -183 97 -315q97 -127 223 -127t221 129q96 125 96 315q0 191 -96 313q-93 127 -223 127q-124 0 -221 -127 q-97 -129 -97 -315z" />
<glyph unicode="1" horiz-adv-x="526" d="M61 1296l37 35q65 61 126.5 120.5t93 89.5t40.5 38l15 14h92v-1132h-123v932l-197 -187z" />
<glyph unicode="2" d="M61 461v100l699 602q61 52 61 113q0 73 -90 133q-85 59 -227 59q-95 0 -166 -28q-70 -26 -115 -74l-35 -39l-90 84l35 37q64 70 158 106q90 37 213 37q178 0 309 -88q131 -83 131 -227q0 -119 -102 -205l-568 -487h670v-123h-883z" />
<glyph unicode="3" d="M61 774v53h123v-53q0 -68 90 -131q88 -59 230 -59q139 0 227 61q90 60 90 131t-90 131q-86 60 -227 60l-55 -2v125h55q138 0 227 59q90 60 90 131t-90 131q-85 59 -227 59q-89 0 -166 -30q-77 -28 -115 -72l-37 -41l-88 86l33 37q64 67 162 104t211 37q178 0 309 -88 q131 -83 131 -223q0 -78 -49 -145q-50 -65 -129 -107q83 -46 129 -108q49 -64 49 -146q0 -138 -133 -225q-136 -88 -309 -88q-170 0 -309 88q-132 89 -132 225z" />
<glyph unicode="4" horiz-adv-x="1253" d="M61 713v94l791 786h92v-757h248v-123h-248v-252h-123v252h-760zM266 836h555v553z" />
<glyph unicode="5" horiz-adv-x="1007" d="M61 967l27 626h858v-123h-739l-17 -380h308h18q168 0 301 -91q129 -86 129 -225q0 -138 -133 -225q-136 -88 -309 -88q-170 0 -309 88q-132 89 -132 225v53h123v-53q0 -68 90 -131q88 -59 230 -59q139 0 227 61q90 60 90 129q0 73 -88 131q-86 62 -225 62h-12h-437z" />
<glyph unicode="6" d="M61 778v502q3 138 134 225q131 88 309 88q124 0 217 -41q104 -41 160 -112l30 -37l-88 -84l-35 41q-38 51 -116 80q-67 30 -168 30q-139 0 -230 -61q-90 -63 -90 -133v-279q126 97 320 97q179 0 309 -90q131 -86 131 -228q0 -137 -133 -227q-131 -88 -307 -88 q-135 0 -250 53q-111 55 -162 145l-10 23q-21 58 -21 96zM184 776q0 -70 90 -133q88 -59 230 -59q139 0 227 61q90 60 90 133t-90 133q-86 60 -229 60q-136 0 -228 -62q-90 -63 -90 -133z" />
<glyph unicode="7" horiz-adv-x="1064" d="M61 461l764 1009h-714v123h895v-90l-791 -1042h-154z" />
<glyph unicode="8" d="M61 774q0 73 52 144q50 65 133 110q-81 44 -133 111q-52 71 -52 141q0 138 134 225q131 86 309 86t309 -88q131 -83 131 -223q0 -77 -51 -143q-46 -63 -133 -109q82 -43 133 -113q51 -66 51 -141q0 -138 -133 -225q-136 -88 -309 -88q-170 0 -309 88q-132 89 -132 225z M184 774q0 -68 90 -131q88 -59 230 -59q139 0 227 61q90 60 90 131t-90 131q-86 60 -229 60q-136 0 -228 -62q-90 -59 -90 -131zM184 1280q0 -68 90 -131q92 -59 226 -59q142 0 231 59q90 60 90 131t-90 129q-85 59 -229 59q-140 0 -228 -59q-90 -59 -90 -129z" />
<glyph unicode="9" d="M61 825h123l2 -49q3 -68 93 -131q92 -59 225 -59q138 0 229 61q90 60 90 131v279q-131 -96 -319 -96q-172 0 -309 90q-132 91 -132 227q0 137 134 227q130 88 307 88q144 0 250 -53q110 -51 161 -145l11 -23q20 -41 20 -94v-502q0 -138 -135 -227q-133 -86 -307 -86 q-168 0 -307 88q-131 88 -134 221zM186 1276q0 -70 90 -133q89 -60 228 -60q137 0 229 62q90 60 90 133q0 71 -92 133q-88 59 -227 59q-137 0 -228 -61q-90 -59 -90 -133z" />
<glyph unicode=":" horiz-adv-x="245" d="M61 461v123h123v-123h-123zM61 1151v123h123v-123h-123z" />
<glyph unicode=";" horiz-adv-x="245" d="M61 379v205h123v-205h-123zM61 1151v123h123v-123h-123z" />
<glyph unicode="&#x3c;" horiz-adv-x="643" d="M61 997v62l439 407l84 -90l-375 -348l375 -348l-84 -90z" />
<glyph unicode="=" horiz-adv-x="763" d="M61 821v72v51h644v-123h-644zM61 1110v123h644v-123h-644z" />
<glyph unicode="&#x3e;" horiz-adv-x="643" d="M61 686l373 348l-373 348l84 91l439 -410v-59l-439 -408z" />
<glyph unicode="?" d="M61 1231l2 53q6 135 136 221q136 88 305 88q181 0 311 -90q131 -86 131 -227q0 -95 -65 -166q-64 -73 -168 -113q-7 -2 -19 -8q-53 -17 -88 -67q-33 -51 -33 -105v-6v-166h-122v166v8q0 94 57 176q61 82 145 111q12 4 15 4q74 29 116 74q39 42 39 92q0 73 -90 133 q-85 59 -229 59q-137 0 -225 -59q-90 -60 -93 -129l-2 -49h-123zM449 461h122v123h-122v-123zM451 645h122h-122z" />
<glyph unicode="@" horiz-adv-x="1452" d="M61 928q0 177 91 334q96 160 241 241q152 88 334 88q277 0 469 -192q197 -191 197 -467v-279q0 -70 -54 -121q-49 -49 -120 -49q-60 0 -111 39q-47 41 -59 103q-134 -140 -322 -140q-182 0 -311 129t-129 312q0 182 129 311t311 129q189 0 317 -137v18h123v-592 q0 -17 17 -34q22 -15 35 -15q17 0 36 15q15 13 15 34v273q0 176 -105 317q-73 108 -190 166q-106 57 -248 57q-226 0 -385 -159q-158 -158 -158 -383q0 -223 160 -383q158 -158 383 -158q138 0 266 70l39 22l72 -100l-49 -29q-149 -85 -328 -88q-178 0 -334 90 q-153 91 -243 242q-89 154 -89 336zM410 924q0 -130 94 -224q95 -92 223 -92q133 0 225 92q92 89 92 226q0 134 -94 225q-92 92 -223 92t-225 -94q-92 -92 -92 -225z" />
<glyph unicode="A" horiz-adv-x="1318" d="M61 461l555 1132h86l555 -1132h-137l-121 246h-680l-120 -246h-138zM379 829h561l-281 572z" />
<glyph unicode="B" horiz-adv-x="995" d="M61 461v1130h459q129 0 221 -92q93 -93 93 -219q0 -125 -89 -217q87 -38 138 -115q53 -73 53 -174q0 -129 -92 -221t-221 -92h-562zM184 584h336h103q76 0 133 57q55 58 55 135q0 80 -55 135q-53 56 -133 56h-103h-336v-383zM184 1090h236h100q78 0 133 55q56 56 56 135 q0 77 -56 133q-55 55 -133 55h-102h-234v-378z" />
<glyph unicode="C" horiz-adv-x="1116" d="M61 1028q0 233 166 399q164 164 400 164q225 0 389 -153l39 -37l-88 -86l-37 33q-123 120 -303 120q-182 0 -314 -129q-129 -129 -129 -313q0 -179 131 -313q132 -129 312 -129q175 0 305 121l35 34l88 -86l-39 -37q-161 -155 -389 -155q-234 0 -400 166t-166 401z" />
<glyph unicode="D" horiz-adv-x="1013" d="M61 461v1132h326q233 0 399 -166t166 -401q0 -233 -166 -399t-399 -166h-326zM184 584h203q182 0 313 131q129 129 129 313q0 183 -131 311q-129 129 -311 129h-203v-884z" />
<glyph unicode="E" horiz-adv-x="980" d="M61 461v1130h861v-123h-738v-378h738v-123h-738v-383h738v-123h-861z" />
<glyph unicode="F" horiz-adv-x="980" d="M61 461v1130h861v-123h-738v-381h738v-122h-738v-504h-123z" />
<glyph unicode="G" horiz-adv-x="1253" d="M61 1028q0 233 166 399q164 164 400 164q226 0 387 -151l39 -37l-90 -86l-35 33q-124 118 -301 118q-182 0 -314 -129q-129 -129 -129 -313q0 -179 131 -313q132 -129 312 -129q171 0 293 110q124 109 145 273h-492v123h617l2 -50v-16q0 -233 -166 -399 q-167 -164 -399 -164q-234 0 -400 166t-166 401z" />
<glyph unicode="H" horiz-adv-x="1009" d="M61 461v1132h123v-503h641v503h123v-1132h-123v506h-641v-506h-123z" />
<glyph unicode="I" horiz-adv-x="739" d="M61 461v123h246v886h-246v123h617v-123h-248v-886h248v-123h-617z" />
<glyph unicode="J" horiz-adv-x="1007" d="M61 950h123v-51q6 -130 99 -223q95 -92 221 -92q133 0 227 94q92 92 92 227v125v440h-493v123h616v-688q0 -183 -129 -315q-129 -129 -313 -129q-179 0 -309 127q-129 129 -132 309z" />
<glyph unicode="K" horiz-adv-x="1112" d="M61 461v1132h123v-526l525 526h174l-494 -495l664 -637h-179l-573 551l-117 -117v-434h-123z" />
<glyph unicode="L" horiz-adv-x="985" d="M61 461v1132h123v-1009h742v-123h-865z" />
<glyph unicode="M" horiz-adv-x="1253" d="M61 461v1132h1131v-1132h-123v889l-403 -557h-78l-404 557v-889h-123zM160 1593l467 -645l469 645h-936z" />
<glyph unicode="N" d="M61 461v1132h99l661 -891v891h123v-1132h-98l-662 891v-891h-123z" />
<glyph unicode="O" horiz-adv-x="1253" d="M61 1028q0 233 166 399t402 166q233 0 399 -166q164 -164 164 -401q0 -233 -166 -399t-399 -166q-234 0 -400 166t-166 401zM184 1026q0 -179 131 -313q132 -129 314 -129q180 0 311 131q129 132 129 313q0 182 -129 311t-313 129q-182 0 -314 -129q-129 -129 -129 -313z " />
<glyph unicode="P" horiz-adv-x="1011" d="M61 461v1130h580q130 0 219 -92q90 -90 90 -219q0 -127 -86 -219q-85 -88 -221 -94h-459v-506h-123zM184 1090h361h98q76 0 131 55q53 53 53 135q0 78 -55 133t-129 55h-100h-359v-378z" />
<glyph unicode="Q" horiz-adv-x="1271" d="M61 1028q0 233 166 399t402 166q233 0 399 -166q164 -164 164 -401q0 -92 -35 -184q-34 -97 -94 -172l149 -142l-86 -88l-151 144q-67 -50 -168 -88q-96 -35 -180 -35q-234 0 -400 166t-166 401zM184 1026q0 -179 131 -313q132 -129 312 -129q55 0 129 24q72 24 129 62 l-213 202l84 89l219 -205q40 54 67 135q27 72 27 135q0 186 -129 315q-126 129 -313 129q-183 0 -314 -131q-129 -129 -129 -313z" />
<glyph unicode="R" horiz-adv-x="1181" d="M61 461v1130h580q127 0 219 -92q90 -90 90 -219q0 -122 -82 -213q-79 -88 -198 -100l450 -506h-164l-450 506h-322v-506h-123zM184 1090h361h98q76 0 131 55q53 53 53 135q0 78 -55 133t-129 55h-100h-359v-378z" />
<glyph unicode="S" horiz-adv-x="991" d="M61 821h123l2 -49q3 -68 90 -131q86 -57 220 -57q137 0 223 59q88 61 88 131q0 72 -88 133q-83 60 -221 60h-23q-164 6 -291 94q-121 87 -121 219q0 138 132 225q131 88 303 88q112 0 202 -37q98 -39 156 -100l35 -37l-90 -84l-35 37q-44 48 -113 70q-68 26 -155 26 q-139 0 -224 -59q-88 -60 -88 -129q0 -66 84 -129q80 -55 213 -61h15q175 0 303 -91q129 -88 129 -225t-131 -225q-133 -88 -303 -88q-171 0 -301 86q-129 85 -132 221z" />
<glyph unicode="T" horiz-adv-x="995" d="M61 1470v123h875v-123h-369v-1009h-123v1009h-383z" />
<glyph unicode="U" d="M61 899v694h123v-694v-2q6 -132 97 -223q90 -90 223 -90q131 0 225 94q92 92 92 227l2 125v561h123v-686q0 -184 -131 -315q-129 -129 -311 -129q-181 0 -311 127q-126 126 -132 311z" />
<glyph unicode="V" horiz-adv-x="1318" d="M61 1593h138l460 -942l461 942h137l-555 -1132h-86z" />
<glyph unicode="W" horiz-adv-x="1413" d="M61 1593h125l123 -884l355 659h86l354 -659l123 884h125l-158 -1132h-96l-391 725l-392 -725h-16h-80z" />
<glyph unicode="X" horiz-adv-x="1396" d="M61 461l551 565l-551 567h172l465 -479l465 479h172l-551 -567l551 -565h-172l-465 477l-465 -477h-172z" />
<glyph unicode="Y" horiz-adv-x="1396" d="M61 1591h172l465 -477l465 477h172l-575 -590v-540h-123v540z" />
<glyph unicode="Z" d="M61 461v90l703 917h-703v123h883v-88l-702 -919h702v-123h-883z" />
<glyph unicode="[" horiz-adv-x="485" d="M61 461v1132h363v-123h-240v-886h240v-123h-363z" />
<glyph unicode="\" horiz-adv-x="458" d="M61 1593h125l213 -1132h-125z" />
<glyph unicode="]" horiz-adv-x="485" d="M61 461h363v1132h-363v-123h240v-886h-240v-123z" />
<glyph unicode="^" horiz-adv-x="786" d="M61 1165l293 428h80l293 -428l-102 -69l-232 336l-231 -336z" />
<glyph unicode="_" d="M61 401v123h883v-123h-883z" />
<glyph unicode="`" horiz-adv-x="245" d="M61 1389v204h123v-204h-123z" />
<glyph unicode="a" horiz-adv-x="1318" d="M61 461l555 1132h86l555 -1132h-137l-121 246h-680l-120 -246h-138zM379 829h561l-281 572z" />
<glyph unicode="b" horiz-adv-x="995" d="M61 461v1130h459q129 0 221 -92q93 -93 93 -219q0 -125 -89 -217q87 -38 138 -115q53 -73 53 -174q0 -129 -92 -221t-221 -92h-562zM184 584h336h103q76 0 133 57q55 58 55 135q0 80 -55 135q-53 56 -133 56h-103h-336v-383zM184 1090h236h100q78 0 133 55q56 56 56 135 q0 77 -56 133q-55 55 -133 55h-102h-234v-378z" />
<glyph unicode="c" horiz-adv-x="1116" d="M61 1028q0 233 166 399q164 164 400 164q225 0 389 -153l39 -37l-88 -86l-37 33q-123 120 -303 120q-182 0 -314 -129q-129 -129 -129 -313q0 -179 131 -313q132 -129 312 -129q175 0 305 121l35 34l88 -86l-39 -37q-161 -155 -389 -155q-234 0 -400 166t-166 401z" />
<glyph unicode="d" horiz-adv-x="1013" d="M61 461v1132h326q233 0 399 -166t166 -401q0 -233 -166 -399t-399 -166h-326zM184 584h203q182 0 313 131q129 129 129 313q0 183 -131 311q-129 129 -311 129h-203v-884z" />
<glyph unicode="e" horiz-adv-x="980" d="M61 461v1130h861v-123h-738v-378h738v-123h-738v-383h738v-123h-861z" />
<glyph unicode="f" horiz-adv-x="980" d="M61 461v1130h861v-123h-738v-381h738v-122h-738v-504h-123z" />
<glyph unicode="g" horiz-adv-x="1253" d="M61 1028q0 233 166 399q164 164 400 164q226 0 387 -151l39 -37l-90 -86l-35 33q-124 118 -301 118q-182 0 -314 -129q-129 -129 -129 -313q0 -179 131 -313q132 -129 312 -129q171 0 293 110q124 109 145 273h-492v123h617l2 -50v-16q0 -233 -166 -399 q-167 -164 -399 -164q-234 0 -400 166t-166 401z" />
<glyph unicode="h" horiz-adv-x="1009" d="M61 461v1132h123v-503h641v503h123v-1132h-123v506h-641v-506h-123z" />
<glyph unicode="i" horiz-adv-x="739" d="M61 461v123h246v886h-246v123h617v-123h-248v-886h248v-123h-617z" />
<glyph unicode="j" horiz-adv-x="1007" d="M61 950h123v-51q6 -130 99 -223q95 -92 221 -92q133 0 227 94q92 92 92 227v125v440h-493v123h616v-688q0 -183 -129 -315q-129 -129 -313 -129q-179 0 -309 127q-129 129 -132 309z" />
<glyph unicode="k" horiz-adv-x="1112" d="M61 461v1132h123v-526l525 526h174l-494 -495l664 -637h-179l-573 551l-117 -117v-434h-123z" />
<glyph unicode="l" horiz-adv-x="985" d="M61 461v1132h123v-1009h742v-123h-865z" />
<glyph unicode="m" horiz-adv-x="1253" d="M61 461v1132h1131v-1132h-123v889l-403 -557h-78l-404 557v-889h-123zM160 1593l467 -645l469 645h-936z" />
<glyph unicode="n" d="M61 461v1132h99l661 -891v891h123v-1132h-98l-662 891v-891h-123z" />
<glyph unicode="o" horiz-adv-x="1253" d="M61 1028q0 233 166 399t402 166q233 0 399 -166q164 -164 164 -401q0 -233 -166 -399t-399 -166q-234 0 -400 166t-166 401zM184 1026q0 -179 131 -313q132 -129 314 -129q180 0 311 131q129 132 129 313q0 182 -129 311t-313 129q-182 0 -314 -129q-129 -129 -129 -313z " />
<glyph unicode="p" horiz-adv-x="1011" d="M61 461v1130h580q130 0 219 -92q90 -90 90 -219q0 -127 -86 -219q-85 -88 -221 -94h-459v-506h-123zM184 1090h361h98q76 0 131 55q53 53 53 135q0 78 -55 133t-129 55h-100h-359v-378z" />
<glyph unicode="q" horiz-adv-x="1271" d="M61 1028q0 233 166 399t402 166q233 0 399 -166q164 -164 164 -401q0 -92 -35 -184q-34 -97 -94 -172l149 -142l-86 -88l-151 144q-67 -50 -168 -88q-96 -35 -180 -35q-234 0 -400 166t-166 401zM184 1026q0 -179 131 -313q132 -129 312 -129q55 0 129 24q72 24 129 62 l-213 202l84 89l219 -205q40 54 67 135q27 72 27 135q0 186 -129 315q-126 129 -313 129q-183 0 -314 -131q-129 -129 -129 -313z" />
<glyph unicode="r" horiz-adv-x="1181" d="M61 461v1130h580q127 0 219 -92q90 -90 90 -219q0 -122 -82 -213q-79 -88 -198 -100l450 -506h-164l-450 506h-322v-506h-123zM184 1090h361h98q76 0 131 55q53 53 53 135q0 78 -55 133t-129 55h-100h-359v-378z" />
<glyph unicode="s" horiz-adv-x="991" d="M61 821h123l2 -49q3 -68 90 -131q86 -57 220 -57q137 0 223 59q88 61 88 131q0 72 -88 133q-83 60 -221 60h-23q-164 6 -291 94q-121 87 -121 219q0 138 132 225q131 88 303 88q112 0 202 -37q98 -39 156 -100l35 -37l-90 -84l-35 37q-44 48 -113 70q-68 26 -155 26 q-139 0 -224 -59q-88 -60 -88 -129q0 -66 84 -129q80 -55 213 -61h15q175 0 303 -91q129 -88 129 -225t-131 -225q-133 -88 -303 -88q-171 0 -301 86q-129 85 -132 221z" />
<glyph unicode="t" horiz-adv-x="995" d="M61 1470v123h875v-123h-369v-1009h-123v1009h-383z" />
<glyph unicode="u" d="M61 899v694h123v-694v-2q6 -132 97 -223q90 -90 223 -90q131 0 225 94q92 92 92 227l2 125v561h123v-686q0 -184 -131 -315q-129 -129 -311 -129q-181 0 -311 127q-126 126 -132 311z" />
<glyph unicode="v" horiz-adv-x="1318" d="M61 1593h138l460 -942l461 942h137l-555 -1132h-86z" />
<glyph unicode="w" horiz-adv-x="1413" d="M61 1593h125l123 -884l355 659h86l354 -659l123 884h125l-158 -1132h-96l-391 725l-392 -725h-16h-80z" />
<glyph unicode="x" horiz-adv-x="1396" d="M61 461l551 565l-551 567h172l465 -479l465 479h172l-551 -567l551 -565h-172l-465 477l-465 -477h-172z" />
<glyph unicode="y" horiz-adv-x="1396" d="M61 1591h172l465 -477l465 477h172l-575 -590v-540h-123v540z" />
<glyph unicode="z" d="M61 461v90l703 917h-703v123h883v-88l-702 -919h702v-123h-883z" />
<glyph unicode="{" horiz-adv-x="602" d="M61 967v120l52 3q54 0 92 38q39 39 39 95q0 9 -11 43q-8 33 -8 69q0 107 76 183q75 75 180 75q9 0 13 -2l49 -2v-123l-56 2h-6q-56 0 -94 -38q-39 -39 -39 -95l10 -45q9 -28 9 -67q0 -119 -91 -195q91 -76 91 -194q0 -33 -11 -70q-8 -33 -8 -47q0 -52 39 -94 q42 -39 94 -39h6l56 2v-123l-49 -2h-13q-103 0 -182 76q-74 77 -74 180q0 19 8 69q2 11 5 22.5t4.5 17t1.5 8.5q0 54 -41 92q-38 41 -90 41h-52z" />
<glyph unicode="|" horiz-adv-x="245" d="M61 256h123v1532h-123v-1532z" />
<glyph unicode="}" horiz-adv-x="602" d="M61 463l50 -2h12q104 0 180 76t76 180q0 27 -10 69q-2 11 -4 22.5t-3.5 17.5t-1.5 8q0 53 39 92q41 41 93 41h51v120l-51 3q-54 0 -95 38q-37 40 -37 95q0 2 1.5 7t3.5 15t4 21q8 33 8 69q0 110 -76 183q-72 75 -180 75q-6 0 -10 -2l-50 -2v-123l54 2h6q59 0 94 -38 q39 -36 39 -95q0 -9 -8 -45q-8 -50 -8 -67q0 -117 90 -195q-90 -78 -90 -194q0 -16 8 -70q8 -33 8 -47q0 -55 -39 -94t-94 -39h-6l-54 2v-123z" />
<glyph unicode="~" horiz-adv-x="1103" d="M61 1141l115 45l17 -51q12 -38 55 -78q41 -36 80 -45q20 -4 30 -4q37 0 80 16q43 18 66 41q43 49 106 78q70 31 129 31h9q19 0 55 -9q77 -16 137 -73q64 -55 88 -129l14 -48l-114 -43l-17 52q-12 38 -55 75q-43 40 -80 48q-8 2 -28 2q-41 0 -82 -17q-35 -12 -64 -41 q-42 -48 -110 -78q-70 -28 -134 -28q-30 0 -57 6q-73 18 -137 76q-64 64 -86 129z" />
<glyph unicode="&#xad;" horiz-adv-x="763" d="M61 967v123h644v-123h-644z" />
<glyph unicode="&#x2000;" horiz-adv-x="894" />
<glyph unicode="&#x2001;" horiz-adv-x="1788" />
<glyph unicode="&#x2002;" horiz-adv-x="894" />
<glyph unicode="&#x2003;" horiz-adv-x="1788" />
<glyph unicode="&#x2004;" horiz-adv-x="596" />
<glyph unicode="&#x2005;" horiz-adv-x="447" />
<glyph unicode="&#x2006;" horiz-adv-x="298" />
<glyph unicode="&#x2007;" horiz-adv-x="298" />
<glyph unicode="&#x2008;" horiz-adv-x="223" />
<glyph unicode="&#x2009;" horiz-adv-x="357" />
<glyph unicode="&#x200a;" horiz-adv-x="99" />
<glyph unicode="&#x2010;" horiz-adv-x="763" d="M61 967v123h644v-123h-644z" />
<glyph unicode="&#x2011;" horiz-adv-x="763" d="M61 967v123h644v-123h-644z" />
<glyph unicode="&#x2012;" horiz-adv-x="763" d="M61 967v123h644v-123h-644z" />
<glyph unicode="&#x2013;" horiz-adv-x="1143" d="M61 967v123h1024v-123h-1024z" />
<glyph unicode="&#x2014;" horiz-adv-x="2167" d="M61 967v123h2048v-123h-2048z" />
<glyph unicode="&#x2018;" horiz-adv-x="253" d="M61 1389v204h123v-204h-123z" />
<glyph unicode="&#x2019;" horiz-adv-x="247" d="M61 1389v204h123v-204h-123z" />
<glyph unicode="&#x201c;" horiz-adv-x="477" d="M61 1389v204h123v-204h-123zM276 1389v204h123v-204h-123z" />
<glyph unicode="&#x201d;" horiz-adv-x="462" d="M61 1389v204h123v-204h-123zM276 1389v204h123v-204h-123z" />
<glyph unicode="&#x2026;" horiz-adv-x="645" d="M61 461h123v123h-123v-123zM256 461h123v123h-123v-123zM463 461h123v123h-123v-123z" />
<glyph unicode="&#x202f;" horiz-adv-x="357" />
<glyph unicode="&#x205f;" horiz-adv-x="447" />
<glyph unicode="&#x25fc;" horiz-adv-x="1597" d="M0 0v1597h1597v-1597h-1597z" />
</font>
</defs>
</svg>
