<?xml version="1.0" standalone="no"?>
<!DOCTYPE svg PUBLIC "-//W3C//DTD SVG 1.1//EN" "http://www.w3.org/Graphics/SVG/1.1/DTD/svg11.dtd" >
<svg xmlns="http://www.w3.org/2000/svg" xmlns:xlink="http://www.w3.org/1999/xlink" version="1.1">
<metadata></metadata>
<defs>
<font id="axon_regularregular" horiz-adv-x="964" >
<font-face units-per-em="2048" ascent="1638" descent="-410" />
<missing-glyph horiz-adv-x="614" />
<glyph horiz-adv-x="0" />
<glyph horiz-adv-x="682" />
<glyph horiz-adv-x="0" />
<glyph unicode="&#x9;" horiz-adv-x="681" />
<glyph unicode=" "  horiz-adv-x="614" />
<glyph unicode="&#x09;" horiz-adv-x="614" />
<glyph unicode="&#xa0;" horiz-adv-x="614" />
<glyph unicode="!" horiz-adv-x="204" d="M61 481v82h82v-82h-82zM61 604v969h82v-969h-82z" />
<glyph unicode="&#x22;" horiz-adv-x="325" d="M61 1409v164h82v-164h-82zM182 1409v164h82v-164h-82z" />
<glyph unicode="#" horiz-adv-x="1050" d="M61 756v82h140l73 391h-127v82h142l49 262h84l-49 -262h407l51 262h82l-49 -262h125v-82h-139l-74 -391h127v-82h-143l-51 -275h-84l53 275h-410l-51 -275h-84l51 275h-123zM283 838h409l74 391h-410z" />
<glyph unicode="$" horiz-adv-x="948" d="M61 1280q0 118 107 199q104 80 262 92v112h82v-112q199 -12 305 -127l23 -23l-60 -55l-22 23q-82 88 -246 100v-420q152 -9 264 -92q111 -80 111 -201q0 -120 -109 -201q-109 -80 -266 -92v-118h-82v118q-55 5 -135 27q-48 19 -86 41q-25 15 -29 18q-27 21 -51 45l-20 23 l59 55l20 -22q11 -11 39 -35q4 -2 11.5 -7t11.5 -7q44 -23 69 -33q68 -18 111 -23v424q-145 12 -260 94q-109 83 -109 197zM143 1280q0 -73 80 -135t207 -74v418q-120 -9 -205 -72q-82 -63 -82 -137zM512 565q129 12 209 72q84 60 84 139q0 78 -82 139q-77 63 -211 72v-422z " />
<glyph unicode="%" horiz-adv-x="1212" d="M61 1337q0 96 70 166q68 68 166 68q101 0 168 -70q67 -67 67 -166q0 -97 -69 -166t-166 -69q-96 0 -168 69q-68 71 -68 168zM143 1335q0 -60 45 -108q48 -45 109 -45q64 0 109 45t45 108q0 67 -45 109q-42 45 -109 45q-64 0 -109 -45t-45 -109zM461 481l205 1092h82 l-205 -1092h-82zM680 717q0 98 70 168q67 67 168 67q99 0 165 -69q68 -68 68 -166t-70 -168q-68 -68 -166 -68q-92 0 -165 70q-70 73 -70 166zM762 717q0 -61 45 -109q48 -45 108 -45q64 0 109 45t45 109q0 66 -45 108q-42 45 -109 45q-63 0 -108 -45t-45 -108z" />
<glyph unicode="&#x26;" horiz-adv-x="1073" d="M61 774q0 121 121 207q39 29 86 47q-31 13 -88 47q-119 87 -119 203q0 127 125 211q121 82 297 82q110 0 203 -37q100 -38 152 -98l20 -23l-59 -55l-21 22q-43 49 -125 80q-77 29 -170 29q-145 0 -243 -64q-97 -60 -97 -145q0 -78 88 -141q106 -70 250 -70h35v-84l-33 2 q-152 0 -252 -72q-88 -63 -88 -141q0 -80 99 -147q98 -64 241 -64h23q136 6 225 68q90 60 90 139v8v6v285h191v-82h-109v-205v-14q-3 -120 -119 -199q-113 -79 -272 -88h-29q-169 0 -297 84q-125 87 -125 209z" />
<glyph unicode="'" horiz-adv-x="204" d="M61 1409v164h82v-164h-82z" />
<glyph unicode="(" horiz-adv-x="362" d="M61 1036q0 129 35 281q38 154 88 239l9 17h94l-27 -47q-43 -71 -82 -223q-35 -146 -35 -267q0 -119 39 -278q42 -157 88 -230l31 -47h-96l-8 15q-57 93 -97 249q-39 165 -39 291z" />
<glyph unicode=")" horiz-adv-x="362" d="M61 481l31 47q51 78 90 232q37 140 37 276q0 114 -31 254q-35 154 -84 236l-28 47h96l8 -17q49 -86 88 -247q33 -141 33 -273q0 -140 -39 -293q-39 -160 -94 -247l-10 -15h-97z" />
<glyph unicode="*" horiz-adv-x="389" d="M61 1403v82h41l-26 31l59 55l21 -23v25h82v-25l18 23l61 -55l-28 -31h39v-82h-39l26 -29l-61 -55l-16 18v-30h-82v30l-19 -18l-59 55l24 29h-41z" />
<glyph unicode="+" horiz-adv-x="722" d="M61 987v82h261v260h81v-260h261v-82h-261v-260h-81v260h-261z" />
<glyph unicode="," horiz-adv-x="204" d="M61 399v164h82v-164h-82z" />
<glyph unicode="-" horiz-adv-x="722" d="M61 989v82h603v-82h-603z" />
<glyph unicode="." horiz-adv-x="204" d="M61 481v82h82v-82h-82z" />
<glyph unicode="/" horiz-adv-x="409" d="M61 481l205 1092h84l-205 -1092h-84z" />
<glyph unicode="0" d="M61 1026q0 226 123 385q122 162 299 162t299 -162q121 -156 121 -385q0 -222 -123 -385q-124 -160 -299 -160q-174 0 -299 162q-121 161 -121 383zM143 1026q0 -194 103 -330q103 -133 237 -133q136 0 238 135q100 129 100 328t-102 330q-98 133 -238 133 q-132 0 -237 -135q-101 -134 -101 -328z" />
<glyph unicode="1" horiz-adv-x="477" d="M61 1294l23 21q242 233 260 248l8 10h64v-1092h-82v959l-215 -205z" />
<glyph unicode="2" d="M61 481v72l691 594q14 14 20 18q6 9 14 17q35 43 35 94q0 79 -86 141q-97 72 -252 72q-92 0 -174 -31q-77 -29 -123 -78l-20 -24l-60 57l21 23q54 60 152 100q88 35 204 35q182 0 303 -90q117 -85 117 -205q0 -81 -55 -148q-2 -3 -19 -20q-3 -3 -10.5 -10t-11.5 -11 l-608 -524h704v-82h-842z" />
<glyph unicode="3" d="M61 774v33h82v-33q0 -80 99 -147q98 -64 241 -64q141 0 242 66q96 65 96 145q0 83 -88 144q-100 69 -250 69h-34v82h34q148 0 252 72q86 62 86 139q0 83 -98 147q-94 64 -240 64q-87 0 -174 -33q-77 -29 -123 -78l-20 -22l-60 55l21 23q58 61 154 100q88 35 202 35 q174 0 295 -84q125 -82 125 -207q0 -120 -119 -205q-49 -33 -86 -47q42 -15 86 -47q119 -85 119 -207q0 -124 -125 -209q-125 -84 -295 -84h-26q-160 9 -279 90q-117 83 -117 203z" />
<glyph unicode="4" horiz-adv-x="1212" d="M61 733v66l779 774h63v-758h248v-82h-248v-252h-82v252h-760zM195 815h626v623z" />
<glyph unicode="5" d="M61 987l25 586h819v-82h-741l-17 -422h330h17q124 0 225 -49q16 -8 22 -12q76 -37 121 -101q43 -57 43 -133q0 -69 -41 -127q-40 -58 -110 -98q-118 -68 -271 -68q-9 0 -28 1t-29 1q-112 12 -205 62q-131 73 -155 192q0 6 -1.5 18.5t-1.5 18.5v33h82v-33q0 -4 1 -11 t1 -11q11 -63 91 -121q83 -55 188 -66q10 0 29 -1t28 -1q143 0 244 66q96 65 96 145q0 100 -123 164q-11 7 -22 10q-82 39 -189 39h-12h-416z" />
<glyph unicode="6" d="M61 778v502q3 78 56 143q55 67 137 103q100 47 229 47q118 0 209 -39q96 -36 154 -107l18 -22l-59 -57l-23 26q-42 55 -123 84q-76 33 -176 33q-113 0 -194 -41q-71 -32 -109 -78q-37 -46 -37 -96v-324q127 121 340 121q174 0 295 -84q125 -82 125 -211q0 -128 -125 -213 q-121 -84 -297 -84q-168 0 -295 86q-125 87 -125 211zM143 776q0 -80 99 -147q101 -66 241 -66q141 0 242 66q96 65 96 149t-98 148q-91 65 -242 65q-146 0 -241 -65q-97 -63 -97 -150z" />
<glyph unicode="7" horiz-adv-x="1003" d="M61 481l764 1010h-735v82h854v-64l-780 -1028h-103z" />
<glyph unicode="8" d="M61 774q0 77 60 146q63 69 151 108q-92 42 -151 107q-60 66 -60 145q0 125 125 209q121 82 297 82q174 0 295 -84q125 -82 125 -207q0 -80 -59 -145q-58 -67 -152 -107q90 -37 152 -108q59 -65 59 -146q0 -124 -125 -209q-125 -84 -297 -84q-167 0 -295 84 q-125 87 -125 209zM143 774q0 -80 99 -147q98 -64 241 -64q141 0 242 66q96 65 96 147q0 84 -98 148q-92 63 -242 63q-146 0 -241 -65q-97 -63 -97 -148zM143 1280q0 -80 99 -147q98 -64 237 -64q143 0 246 64q96 63 96 147t-98 145q-98 64 -242 64q-143 0 -241 -64 q-97 -60 -97 -145z" />
<glyph unicode="9" d="M61 772v33h82v-31q6 -76 86 -135q103 -74 254 -74q106 0 195 39q67 30 106 78q37 45 37 96v324q-127 -121 -338 -121q-170 0 -297 86q-125 87 -125 211q0 127 125 211q124 84 297 84q174 0 295 -84q125 -82 125 -211v-502q0 -81 -53 -143q-55 -65 -139 -103 q-103 -47 -228 -47q-177 0 -305 90q-111 86 -117 199zM143 1278q0 -82 99 -150q100 -65 241 -65q142 0 242 65q96 65 96 150t-98 149q-94 64 -240 64q-144 0 -241 -66q-99 -61 -99 -147z" />
<glyph unicode=":" horiz-adv-x="204" d="M61 481v82h82v-82h-82zM61 1171v82h82v-82h-82z" />
<glyph unicode=";" horiz-adv-x="204" d="M61 399v164h82v-164h-82zM61 1171v82h82v-82h-82z" />
<glyph unicode="&#x3c;" horiz-adv-x="593" d="M61 1008v41l416 389l58 -62l-375 -348l375 -350l-58 -60z" />
<glyph unicode="=" horiz-adv-x="722" d="M61 842v55v4v2v21h603v-82h-603zM61 1130v82h603v-82h-603z" />
<glyph unicode="&#x3e;" horiz-adv-x="593" d="M61 678l56 -60l418 390v41l-418 389l-56 -62l375 -348z" />
<glyph unicode="?" d="M61 1251l2 33q3 120 119 199q125 90 301 90q179 0 303 -92q117 -85 117 -205q0 -86 -59 -154q-56 -65 -160 -106l-18 -6q-47 -17 -84 -60q-33 -39 -45 -90l-5 -20q0 -3 -1 -11t-1 -12v-6v-207h-81v207v8q2 12 2 33q1 4 3 12.5t3 12.5q15 76 63 129q44 52 119 79 q11 7 14 7q83 31 125 79q43 49 43 105q0 82 -84 139q-100 74 -254 74q-151 0 -254 -72q-81 -60 -84 -137l-2 -29h-82zM449 481v82h81v-82h-81z" />
<glyph unicode="@" horiz-adv-x="1411" d="M61 926q0 192 103 350q106 160 272 235q93 46 199 58q25 2 72 2q78 0 159 -19q22 -4 29 -8q22 -6 27 -8l30 -12q37 -17 54 -27q161 -81 254 -240q6 -8 14 -24q78 -141 78 -301v-279q0 -59 -47 -106q-43 -43 -107 -43q-5 0 -15.5 1t-15.5 1q-49 12 -86 49q-31 36 -37 92v6 v25q-53 -76 -147 -127q-86 -45 -190 -45q-174 0 -297 123t-123 297t123 297t297 123q102 0 190 -46q87 -41 147 -126v53h82v-572q0 -26 23 -49q27 -20 49 -20q28 0 51 20q21 18 21 49v273q0 142 -68 266q-10 20 -12 23q-78 136 -223 208q-27 16 -47 23q-15 8 -27 10 q-5 4 -23 8q-14 7 -26 7q-60 16 -137 16q-44 0 -64 -2q-90 -9 -174 -49q-146 -68 -236 -207q-90 -140 -90 -305v-33q1 -7 3.5 -21.5t3.5 -21.5q0 -7 4 -27q2 -8 5 -23.5t5 -23.5q4 -8 8 -24q0 -1 6 -23q8 -16 10 -24q69 -154 207 -246q145 -94 312 -94q147 0 274 71l25 15 l47 -68l-29 -16q-148 -83 -317 -86q-195 0 -359 108q-159 111 -235 285q-2 4 -5.5 13t-5.5 13q-4 14 -10 27q-2 5 -4 14t-4 13q-2 9 -6 27.5t-6 27.5q0 13 -4 29q-5 45 -5 51t-1 18.5t-1 18.5zM369 924q0 -138 100 -238q101 -98 238 -98q141 0 239 98q98 95 98 240 q0 142 -100 239q-99 99 -237 99q-139 0 -240 -101q-98 -98 -98 -239z" />
<glyph unicode="A" horiz-adv-x="1253" d="M61 481l535 1092h61l535 -1092h-90l-121 246h-709l-118 -246h-93zM313 809h627l-313 639z" />
<glyph unicode="B" horiz-adv-x="954" d="M61 481v1090h439q121 0 207 -86t86 -205q0 -136 -105 -225q90 -24 150 -105q57 -71 57 -176q0 -121 -86 -207t-207 -86h-541zM143 563h359h100q84 0 148 64q61 64 61 149q0 89 -61 150q-58 61 -148 61h-102h-357v-424zM143 1069h256h101q86 0 147 61q62 62 62 150 q0 85 -62 147t-147 62h-103h-254v-420z" />
<glyph unicode="C" horiz-adv-x="1064" d="M61 1026q0 12 5 74q9 62 30 117q2 5 19 45q16 32 22 41q2 4 25 38q71 104 192 168q121 62 252 62q219 0 375 -150l25 -20l-60 -58l-22 19q-130 127 -318 127q-118 0 -215 -53q-95 -50 -164 -144q-3 -4 -9.5 -15.5t-10.5 -16.5q-2 -3 -6 -10t-7.5 -13.5t-7.5 -11.5 q-2 -6 -7 -18.5t-7 -18.5q-20 -54 -25 -101q-4 -40 -4 -61q0 -7 1 -21.5t1 -21.5q0 -2 3 -17.5t4 -23.5q30 -163 157 -272q128 -107 297 -107q147 0 266 84q24 17 54 43l20 21l60 -58l-23 -22q-50 -40 -63 -49q-144 -101 -314 -101q-196 0 -350 127q-148 127 -186 320 q-1 8 -3.5 24.5t-3.5 24.5q0 8 -1 24.5t-1 24.5z" />
<glyph unicode="D" horiz-adv-x="972" d="M61 481v1092h306q225 0 385 -160q159 -159 159 -387q0 -226 -159 -385q-160 -160 -385 -160h-306zM143 563h224q190 0 327 137q135 138 135 328q0 191 -135 326t-327 135h-224v-926z" />
<glyph unicode="E" horiz-adv-x="940" d="M61 481v1090h820v-82h-738v-420h738v-82h-738v-424h738v-82h-820z" />
<glyph unicode="F" horiz-adv-x="940" d="M61 481v1090h820v-82h-738v-422h738v-82h-738v-504h-82z" />
<glyph unicode="G" horiz-adv-x="1212" d="M61 1026q0 8 1 24.5t1 24.5q1 10 3.5 27.5t3.5 23.5l12 48q2 9 7 24.5t7 20.5q3 9 10 24t9 19q4 9 10.5 22.5t9.5 18.5l15 20q71 113 194 182q120 66 262 66q218 0 373 -146l22 -22l-59 -57l-20 20q-132 123 -316 123q-121 0 -223 -57q-100 -53 -166 -154q-1 -2 -4.5 -8 t-5.5 -10q-2 -3 -6 -10t-7.5 -13.5t-7.5 -11.5q-2 -6 -7 -18.5t-7 -18.5q-6 -18 -12 -39q-2 -6 -5 -20.5t-5 -20.5q-1 -7 -2.5 -20t-2.5 -19q0 -5 -1 -20t-1 -23q0 -6 1 -20t1 -23q0 -2 3 -17.5t4 -23.5q30 -163 157 -272q128 -107 297 -107q184 0 316 123q133 121 145 301 h-494v82h578v-29v-16q0 -225 -160 -385q-161 -158 -385 -158q-196 0 -350 127q-148 127 -186 320q-1 8 -3.5 23.5t-3.5 23.5q0 9 -1 26t-1 25z" />
<glyph unicode="H" horiz-adv-x="968" d="M61 481v1092h82v-504h682v504h82v-1092h-82v506h-682v-506h-82z" />
<glyph unicode="I" horiz-adv-x="698" d="M61 481v82h246v928h-246v82h576v-82h-248v-928h248v-82h-576z" />
<glyph unicode="J" d="M61 897v33h82v-33q6 -124 86 -219q84 -93 201 -111q36 -4 53 -4q141 0 242 101q98 98 98 241v125v461h-493v82h575v-668q0 -176 -125 -301q-123 -123 -297 -123q-19 0 -65 4q-146 24 -252 142q-99 113 -105 270z" />
<glyph unicode="K" horiz-adv-x="1040" d="M61 481v1092h82v-555l553 555h117l-473 -475l641 -617h-119l-581 559l-138 -137v-422h-82z" />
<glyph unicode="L" horiz-adv-x="944" d="M61 481v1092h82v-1010h742v-82h-824z" />
<glyph unicode="M" horiz-adv-x="1212" d="M61 481v1092h68l477 -660l479 660h66v-1092h-82v930l-434 -598h-57l-435 598v-930h-82z" />
<glyph unicode="N" d="M61 481v1092h68l692 -934v934h82v-1092h-67l-693 932v-932h-82z" />
<glyph unicode="O" horiz-adv-x="1212" d="M61 1026q0 227 160 387q156 160 385 160q227 0 385 -162q160 -160 160 -385t-160 -385t-385 -160t-385 160t-160 385zM143 1026q0 -187 138 -328q138 -135 327 -135t326 137q135 138 135 328q0 191 -135 326t-328 135q-189 0 -327 -135q-136 -136 -136 -328z" />
<glyph unicode="P" horiz-adv-x="970" d="M61 481v1090h21q23 0 112 1t156 1h273q119 0 202 -86q84 -84 84 -207t-84 -207q-80 -83 -198 -86h-4h-480v-506h-82zM143 1069h381h99q84 0 145 61q59 59 59 150q0 86 -61 147q-62 62 -143 62h-101h-379v-420z" />
<glyph unicode="Q" horiz-adv-x="1222" d="M61 1028q0 225 160 385t385 160t385 -160t160 -387q0 -88 -39 -186q-40 -105 -96 -172l147 -140l-57 -59l-150 141q-67 -55 -168 -92q-98 -37 -182 -37q-225 0 -385 160t-160 387zM143 1026q0 -187 138 -328q138 -135 325 -135q65 0 150 31q79 28 141 74l-217 204l57 60 l219 -207q44 55 80 145q33 78 33 156q0 195 -135 330q-132 135 -328 135q-190 0 -327 -137q-136 -136 -136 -328z" />
<glyph unicode="R" horiz-adv-x="1114" d="M61 481v1090h560q118 0 204 -86q84 -84 84 -205q0 -123 -84 -207q-80 -83 -198 -86h-2h-2h-19l451 -506h-111l-450 506h-351v-506h-82zM143 1069h381h99q84 0 145 61q59 59 59 150q0 86 -61 147q-62 62 -143 62h-101h-379v-420z" />
<glyph unicode="S" horiz-adv-x="948" d="M61 768v33h82l2 -31q3 -75 84 -135q1 -1 23 -17q94 -55 223 -55q155 0 256 78q76 61 76 133q0 95 -107 156q-2 1 -11 6.5t-15 7.5q-85 43 -197 43h-22q-105 6 -189 39q-93 41 -147 107q-56 68 -56 147q0 18 9 63q21 61 69 109q87 87 230 111q44 10 104 10q114 0 197 -35 q92 -34 147 -96l21 -23l-60 -55l-20 22q-43 49 -119 76q-66 27 -166 27q-51 0 -92 -8q-107 -17 -178 -82q-42 -39 -53 -78q-7 -21 -7 -41q0 -52 41 -102q39 -45 113 -76q73 -30 164 -33h14q136 0 240 -55q10 -3 28 -17q144 -85 144 -223q0 -111 -107 -196q-54 -45 -125 -68 q-92 -29 -182 -29q-148 0 -266 68q-11 11 -29 18q-16 16 -22 19q-91 79 -97 182z" />
<glyph unicode="T" horiz-adv-x="954" d="M61 1491v82h834v-82h-369v-1010h-82v1010h-383z" />
<glyph unicode="U" d="M61 899v674h82v-674v-2q0 -16 9 -61q16 -79 61 -138q48 -59 111 -96q69 -33 131 -39h28q139 0 240 101q98 98 98 241l2 125v541h82v-666q0 -176 -125 -301q-123 -123 -297 -123q-6 0 -18.5 1t-18.5 1q-84 6 -159 47q-80 44 -140 119q-58 79 -75 168q-11 49 -11 82z" />
<glyph unicode="V" horiz-adv-x="1253" d="M61 1573h93l473 -969l475 969h90l-535 -1092h-61z" />
<glyph unicode="W" horiz-adv-x="1366" d="M61 1573h82l131 -930l379 705h60l379 -705l131 930h82l-152 -1092h-66l-403 748l-405 -748h-66z" />
<glyph unicode="X" horiz-adv-x="1298" d="M61 481l531 545l-531 547h115l473 -488l475 488h115l-532 -547l532 -545h-115l-475 486l-473 -486h-115z" />
<glyph unicode="Y" horiz-adv-x="1298" d="M61 1571h115l473 -486l475 486h115l-549 -561v-529h-82v31v250v250z" />
<glyph unicode="Z" d="M61 481v62l723 946h-723v82h842v-62l-723 -946h723v-82h-842z" />
<glyph unicode="[" horiz-adv-x="444" d="M61 481v1092h322v-82h-240v-928h240v-82h-322z" />
<glyph unicode="\" horiz-adv-x="409" d="M61 1573h84l205 -1092h-84z" />
<glyph unicode="]" horiz-adv-x="444" d="M61 481h322v1092h-322v-82h240v-928h-240v-82z" />
<glyph unicode="^" horiz-adv-x="729" d="M61 1171l275 402h57l277 -402l-68 -47l-237 344l-236 -344z" />
<glyph unicode="_" d="M61 422v82h842v-82h-842z" />
<glyph unicode="`" horiz-adv-x="204" d="M61 1409v164h82v-164h-82z" />
<glyph unicode="a" horiz-adv-x="1253" d="M61 481l535 1092h61l535 -1092h-90l-121 246h-709l-118 -246h-93zM313 809h627l-313 639z" />
<glyph unicode="b" horiz-adv-x="954" d="M61 481v1090h439q121 0 207 -86t86 -205q0 -136 -105 -225q90 -24 150 -105q57 -71 57 -176q0 -121 -86 -207t-207 -86h-541zM143 563h359h100q84 0 148 64q61 64 61 149q0 89 -61 150q-58 61 -148 61h-102h-357v-424zM143 1069h256h101q86 0 147 61q62 62 62 150 q0 85 -62 147t-147 62h-103h-254v-420z" />
<glyph unicode="c" horiz-adv-x="1064" d="M61 1026q0 12 5 74q9 62 30 117q2 5 19 45q16 32 22 41q2 4 25 38q71 104 192 168q121 62 252 62q219 0 375 -150l25 -20l-60 -58l-22 19q-130 127 -318 127q-118 0 -215 -53q-95 -50 -164 -144q-3 -4 -9.5 -15.5t-10.5 -16.5q-2 -3 -6 -10t-7.5 -13.5t-7.5 -11.5 q-2 -6 -7 -18.5t-7 -18.5q-20 -54 -25 -101q-4 -40 -4 -61q0 -7 1 -21.5t1 -21.5q0 -2 3 -17.5t4 -23.5q30 -163 157 -272q128 -107 297 -107q147 0 266 84q24 17 54 43l20 21l60 -58l-23 -22q-50 -40 -63 -49q-144 -101 -314 -101q-196 0 -350 127q-148 127 -186 320 q-1 8 -3.5 24.5t-3.5 24.5q0 8 -1 24.5t-1 24.5z" />
<glyph unicode="d" horiz-adv-x="972" d="M61 481v1092h306q225 0 385 -160q159 -159 159 -387q0 -226 -159 -385q-160 -160 -385 -160h-306zM143 563h224q190 0 327 137q135 138 135 328q0 191 -135 326t-327 135h-224v-926z" />
<glyph unicode="e" horiz-adv-x="940" d="M61 481v1090h820v-82h-738v-420h738v-82h-738v-424h738v-82h-820z" />
<glyph unicode="f" horiz-adv-x="940" d="M61 481v1090h820v-82h-738v-422h738v-82h-738v-504h-82z" />
<glyph unicode="g" horiz-adv-x="1212" d="M61 1026q0 8 1 24.5t1 24.5q1 10 3.5 27.5t3.5 23.5l12 48q2 9 7 24.5t7 20.5q3 9 10 24t9 19q4 9 10.5 22.5t9.5 18.5l15 20q71 113 194 182q120 66 262 66q218 0 373 -146l22 -22l-59 -57l-20 20q-132 123 -316 123q-121 0 -223 -57q-100 -53 -166 -154q-1 -2 -4.5 -8 t-5.5 -10q-2 -3 -6 -10t-7.5 -13.5t-7.5 -11.5q-2 -6 -7 -18.5t-7 -18.5q-6 -18 -12 -39q-2 -6 -5 -20.5t-5 -20.5q-1 -7 -2.5 -20t-2.5 -19q0 -5 -1 -20t-1 -23q0 -6 1 -20t1 -23q0 -2 3 -17.5t4 -23.5q30 -163 157 -272q128 -107 297 -107q184 0 316 123q133 121 145 301 h-494v82h578v-29v-16q0 -225 -160 -385q-161 -158 -385 -158q-196 0 -350 127q-148 127 -186 320q-1 8 -3.5 23.5t-3.5 23.5q0 9 -1 26t-1 25z" />
<glyph unicode="h" horiz-adv-x="968" d="M61 481v1092h82v-504h682v504h82v-1092h-82v506h-682v-506h-82z" />
<glyph unicode="i" horiz-adv-x="698" d="M61 481v82h246v928h-246v82h576v-82h-248v-928h248v-82h-576z" />
<glyph unicode="j" d="M61 897v33h82v-33q6 -124 86 -219q84 -93 201 -111q36 -4 53 -4q141 0 242 101q98 98 98 241v125v461h-493v82h575v-668q0 -176 -125 -301q-123 -123 -297 -123q-19 0 -65 4q-146 24 -252 142q-99 113 -105 270z" />
<glyph unicode="k" horiz-adv-x="1040" d="M61 481v1092h82v-555l553 555h117l-473 -475l641 -617h-119l-581 559l-138 -137v-422h-82z" />
<glyph unicode="l" horiz-adv-x="944" d="M61 481v1092h82v-1010h742v-82h-824z" />
<glyph unicode="m" horiz-adv-x="1212" d="M61 481v1092h68l477 -660l479 660h66v-1092h-82v930l-434 -598h-57l-435 598v-930h-82z" />
<glyph unicode="n" d="M61 481v1092h68l692 -934v934h82v-1092h-67l-693 932v-932h-82z" />
<glyph unicode="o" horiz-adv-x="1212" d="M61 1026q0 227 160 387q156 160 385 160q227 0 385 -162q160 -160 160 -385t-160 -385t-385 -160t-385 160t-160 385zM143 1026q0 -187 138 -328q138 -135 327 -135t326 137q135 138 135 328q0 191 -135 326t-328 135q-189 0 -327 -135q-136 -136 -136 -328z" />
<glyph unicode="p" horiz-adv-x="970" d="M61 481v1090h21q23 0 112 1t156 1h273q119 0 202 -86q84 -84 84 -207t-84 -207q-80 -83 -198 -86h-4h-480v-506h-82zM143 1069h381h99q84 0 145 61q59 59 59 150q0 86 -61 147q-62 62 -143 62h-101h-379v-420z" />
<glyph unicode="q" horiz-adv-x="1222" d="M61 1028q0 225 160 385t385 160t385 -160t160 -387q0 -88 -39 -186q-40 -105 -96 -172l147 -140l-57 -59l-150 141q-67 -55 -168 -92q-98 -37 -182 -37q-225 0 -385 160t-160 387zM143 1026q0 -187 138 -328q138 -135 325 -135q65 0 150 31q79 28 141 74l-217 204l57 60 l219 -207q44 55 80 145q33 78 33 156q0 195 -135 330q-132 135 -328 135q-190 0 -327 -137q-136 -136 -136 -328z" />
<glyph unicode="r" horiz-adv-x="1114" d="M61 481v1090h560q118 0 204 -86q84 -84 84 -205q0 -123 -84 -207q-80 -83 -198 -86h-2h-2h-19l451 -506h-111l-450 506h-351v-506h-82zM143 1069h381h99q84 0 145 61q59 59 59 150q0 86 -61 147q-62 62 -143 62h-101h-379v-420z" />
<glyph unicode="s" horiz-adv-x="948" d="M61 768v33h82l2 -31q3 -75 84 -135q1 -1 23 -17q94 -55 223 -55q155 0 256 78q76 61 76 133q0 95 -107 156q-2 1 -11 6.5t-15 7.5q-85 43 -197 43h-22q-105 6 -189 39q-93 41 -147 107q-56 68 -56 147q0 18 9 63q21 61 69 109q87 87 230 111q44 10 104 10q114 0 197 -35 q92 -34 147 -96l21 -23l-60 -55l-20 22q-43 49 -119 76q-66 27 -166 27q-51 0 -92 -8q-107 -17 -178 -82q-42 -39 -53 -78q-7 -21 -7 -41q0 -52 41 -102q39 -45 113 -76q73 -30 164 -33h14q136 0 240 -55q10 -3 28 -17q144 -85 144 -223q0 -111 -107 -196q-54 -45 -125 -68 q-92 -29 -182 -29q-148 0 -266 68q-11 11 -29 18q-16 16 -22 19q-91 79 -97 182z" />
<glyph unicode="t" horiz-adv-x="954" d="M61 1491v82h834v-82h-369v-1010h-82v1010h-383z" />
<glyph unicode="u" d="M61 899v674h82v-674v-2q0 -16 9 -61q16 -79 61 -138q48 -59 111 -96q69 -33 131 -39h28q139 0 240 101q98 98 98 241l2 125v541h82v-666q0 -176 -125 -301q-123 -123 -297 -123q-6 0 -18.5 1t-18.5 1q-84 6 -159 47q-80 44 -140 119q-58 79 -75 168q-11 49 -11 82z" />
<glyph unicode="v" horiz-adv-x="1253" d="M61 1573h93l473 -969l475 969h90l-535 -1092h-61z" />
<glyph unicode="w" horiz-adv-x="1366" d="M61 1573h82l131 -930l379 705h60l379 -705l131 930h82l-152 -1092h-66l-403 748l-405 -748h-66z" />
<glyph unicode="x" horiz-adv-x="1298" d="M61 481l531 545l-531 547h115l473 -488l475 488h115l-532 -547l532 -545h-115l-475 486l-473 -486h-115z" />
<glyph unicode="y" horiz-adv-x="1298" d="M61 1571h115l473 -486l475 486h115l-549 -561v-529h-82v31v250v250z" />
<glyph unicode="z" d="M61 481v62l723 946h-723v82h842v-62l-723 -946h723v-82h-842z" />
<glyph unicode="{" horiz-adv-x="561" d="M61 987v80l31 2q64 0 109 45q43 43 43 109q0 15 -11 49q-8 36 -8 63q0 98 70 168t166 70q8 0 10 -2h31v-82h-33h-8q-64 0 -109 -45t-45 -109q0 -4 10 -49q9 -28 9 -63q0 -126 -103 -195q21 -14 33 -29q70 -67 70 -165q0 -29 -11 -66q-8 -33 -8 -51q0 -61 45 -109 q48 -45 109 -45h8l33 2v-82l-31 -2h-10q-95 0 -168 70q-68 71 -68 166q0 15 8 65q11 50 11 52q0 67 -47 108q-45 45 -105 45h-31z" />
<glyph unicode="|" horiz-adv-x="204" d="M61 281h82v1488h-82v-1488z" />
<glyph unicode="}" horiz-adv-x="561" d="M61 483l29 -2h12q96 0 166 70t70 166q0 23 -10 65q-2 11 -4 23t-3.5 19t-1.5 10q0 62 46 108q48 45 106 45h31v80l-31 2q-61 0 -109 45q-43 46 -43 109q0 3 1.5 10t3.5 18t4 21q8 36 8 63q0 101 -70 168q-67 70 -166 70q-6 0 -10 -2h-29v-82h33h6q67 0 109 -45 q45 -42 45 -109q0 -13 -8 -49q-8 -50 -8 -63q0 -125 102 -195q-12 -8 -33 -29q-69 -69 -69 -165q0 -12 8 -66q8 -33 8 -51q0 -64 -45 -109t-109 -45h-6l-33 2v-82z" />
<glyph unicode="~" horiz-adv-x="1052" d="M61 1128l76 31l10 -33q16 -38 62 -84q44 -38 90 -51q20 -4 33 -4q41 0 92 21q43 18 68 43q24 28 53 45q83 57 170 57h6q21 0 53 -8q62 -11 127 -70q63 -56 82 -119l8 -28l-76 -29l-10 31q-12 43 -59 84q-42 42 -90 51q-10 4 -35 4q-73 0 -131 -41q-18 -10 -29 -22 q-38 -47 -106 -74q-69 -27 -123 -27q-27 0 -51 6q-68 15 -129 70q-57 52 -80 121z" />
<glyph unicode="&#xad;" horiz-adv-x="722" d="M61 989v82h603v-82h-603z" />
<glyph unicode="&#x2000;" horiz-adv-x="884" />
<glyph unicode="&#x2001;" horiz-adv-x="1769" />
<glyph unicode="&#x2002;" horiz-adv-x="884" />
<glyph unicode="&#x2003;" horiz-adv-x="1769" />
<glyph unicode="&#x2004;" horiz-adv-x="589" />
<glyph unicode="&#x2005;" horiz-adv-x="442" />
<glyph unicode="&#x2006;" horiz-adv-x="294" />
<glyph unicode="&#x2007;" horiz-adv-x="294" />
<glyph unicode="&#x2008;" horiz-adv-x="221" />
<glyph unicode="&#x2009;" horiz-adv-x="353" />
<glyph unicode="&#x200a;" horiz-adv-x="98" />
<glyph unicode="&#x2010;" horiz-adv-x="722" d="M61 989v82h603v-82h-603z" />
<glyph unicode="&#x2011;" horiz-adv-x="722" d="M61 989v82h603v-82h-603z" />
<glyph unicode="&#x2012;" horiz-adv-x="722" d="M61 989v82h603v-82h-603z" />
<glyph unicode="&#x2013;" horiz-adv-x="1143" d="M61 989v82h1024v-82h-1024z" />
<glyph unicode="&#x2014;" horiz-adv-x="2167" d="M61 989v82h2048v-82h-2048z" />
<glyph unicode="&#x2018;" horiz-adv-x="210" d="M61 1409v164h82v-164h-82z" />
<glyph unicode="&#x2019;" horiz-adv-x="204" d="M61 1409v164h82v-164h-82z" />
<glyph unicode="&#x201c;" horiz-adv-x="329" d="M61 1409v164h82v-164h-82zM182 1409v164h82v-164h-82z" />
<glyph unicode="&#x201d;" horiz-adv-x="321" d="M61 1409v164h82v-164h-82zM182 1409v164h82v-164h-82z" />
<glyph unicode="&#x2026;" horiz-adv-x="499" d="M61 481v82h82v-82h-82zM211 481v82h82v-82h-82zM358 481v82h82v-82h-82z" />
<glyph unicode="&#x202f;" horiz-adv-x="353" />
<glyph unicode="&#x205f;" horiz-adv-x="442" />
<glyph unicode="&#x25fc;" horiz-adv-x="1576" d="M0 0v1577h1577v-1577h-1577z" />
</font>
</defs>
</svg>
